<mxfile host="65bd71144e">
    <diagram id="ldZKe99a0s3TlZ5kp_Uz" name="第 1 页">
        <mxGraphModel dx="1051" dy="889" grid="1" gridSize="10" guides="1" tooltips="1" connect="1" arrows="1" fold="1" page="1" pageScale="1" pageWidth="827" pageHeight="1169" math="0" shadow="0">
            <root>
                <mxCell id="0"/>
                <mxCell id="1" parent="0"/>
                <mxCell id="334" style="edgeStyle=none;html=1;entryX=0.5;entryY=1;entryDx=0;entryDy=0;" edge="1" parent="1" source="2" target="277">
                    <mxGeometry relative="1" as="geometry"/>
                </mxCell>
                <mxCell id="2" value="管理员&lt;div&gt;&lt;br&gt;&lt;/div&gt;" style="shape=umlActor;verticalLabelPosition=bottom;verticalAlign=top;html=1;fontStyle=1;fontSize=15;" parent="1" vertex="1">
                    <mxGeometry x="340" y="330" width="30" height="60" as="geometry"/>
                </mxCell>
                <mxCell id="277" value="登录" style="ellipse;whiteSpace=wrap;html=1;fontSize=15;fontStyle=1" parent="1" vertex="1">
                    <mxGeometry x="340" y="40" width="90" height="50" as="geometry"/>
                </mxCell>
                <mxCell id="290" value="床位管理" style="ellipse;whiteSpace=wrap;html=1;fontSize=15;fontStyle=1" parent="1" vertex="1">
                    <mxGeometry x="220" y="160" width="90" height="50" as="geometry"/>
                </mxCell>
                <mxCell id="336" value="登录" style="ellipse;whiteSpace=wrap;html=1;fontSize=15;fontStyle=1" vertex="1" parent="1">
                    <mxGeometry x="330" y="40" width="90" height="50" as="geometry"/>
                </mxCell>
            </root>
        </mxGraphModel>
    </diagram>
</mxfile>